Format;Avi

File Size:1.02gb

Video: ID : 0
Format : MPEG-4 Visual
Format profile : Advanced Simple@L5
Format settings, BVOP : Yes
Format settings, QPel : No
Format settings, GMC : No warppoints
Format settings, Matrix : Default (H.263)
Codec ID : XVID
Codec ID/Hint : XviD
Duration : 1h 12mn
Bit rate : 1 090 Kbps
Width : 704 pixels
Height : 384 pixels
Display aspect ratio : 16:9
Frame rate : 29.970 fps
Color space : YUV
Chroma subsampling : 4:2:0
Bit depth : 8 bits
Scan type : Progressive
Bits/(Pixel*Frame) : 0.134
Stream size : 568 MiB (73%)
Writing library : XviD 1.2.1 (UTC 2008-12-04)

Audio: ID : 1
Format : AC-3
Format/Info : Audio Coding 3
Mode extension : CM (complete main)
Codec ID : 2000
Duration : 1h 12mn
Bit rate mode : Constant
Bit rate : 384 Kbps
Channel(s) : 6 channels
Channel positions : Front: L C R, Side: L R, LFE
Sampling rate : 48.0 KHz
Bit depth : 16 bits
Stream size : 200 MiB (26%)
Alignment : Aligned on interleaves
Interleave, duration : 32 ms (0.96 video frame)

Duration:

Release Date:2010

Language:English

Plot: In 1976, complex political and emotional forces are set in motion when a young man returns to the race-torn Philadelphia neighborhood where he came of age during the Black Power movement.

Cast: Anthony Mackie ...
Marcus Washington
Kerry Washington Kerry Washington ...
Patricia Wilson
Wendell Pierce Wendell Pierce ...
David Gordon
Jamie Hector Jamie Hector ...
'DoRight' Miller
Tariq Trotter Tariq Trotter ...
Bostic Washington
Amari Cheatom Amari Cheatom ...
Jimmy Dixon